<svg width="162" height="162" viewBox="0 0 162 162" fill="none" xmlns="http://www.w3.org/2000/svg">
<g clip-path="url(#clip0_8_181)">
<path d="M0 81C0 36.2649 36.2649 0 81 0C125.735 0 162 36.2649 162 81C162 125.735 125.735 162 81 162C36.2649 162 0 125.735 0 81Z" fill="url(#paint0_linear_8_181)"/>
<path opacity="0.9" d="M49.4917 51.8194H69.7179C75.9488 51.8194 81 46.7413 81 40.4772C81 34.2131 75.9488 29.135 69.7179 29.135C67.8376 29.135 66.0647 29.5974 64.5056 30.4153C62.3348 24.0852 56.3572 19.5377 49.3232 19.5377C40.4561 19.5377 33.2679 26.7642 33.2679 35.6786C33.2679 35.8613 33.2709 36.0433 33.2769 36.2245C30.6885 37.6225 28.9286 40.3701 28.9286 43.5309C28.9286 48.1085 32.6198 51.8194 37.1732 51.8194H49.3232C49.3486 51.8194 49.4917 51.8194 49.4917 51.8194H49.3232H49.4917Z" fill="url(#paint1_linear_8_181)"/>
<path fill-rule="evenodd" clip-rule="evenodd" d="M44.5488 95.6879C12.0178 80.7273 -22.3209 126.067 -22.3209 126.067L0.449295 162H162L162.608 130.141C162.608 130.141 156.589 129.271 154.233 128.659C118.57 119.405 77.5111 110.847 44.5488 95.6879Z" fill="url(#paint2_linear_8_181)"/>
<path fill-rule="evenodd" clip-rule="evenodd" d="M118.888 116.902C176.12 116.219 194.709 146.415 194.709 146.415V202.442H-32.7857L-31.7105 149.118C-31.7105 149.118 22.0895 153.889 40.4761 149.118C76.139 139.864 93.7129 117.203 118.888 116.902Z" fill="url(#paint3_linear_8_181)"/>
<ellipse opacity="0.9" cx="110.893" cy="105.107" rx="8.67857" ry="18.3214" fill="#7AB8FB"/>
<path d="M110.893 116.887V133.116" stroke="#406689"/>
<ellipse opacity="0.9" cx="39.5357" cy="101.571" rx="6.75" ry="12.5357" fill="#8FB6FF"/>
<path d="M39.5357 109.142V120.503" stroke="#80A1BD"/>
<path opacity="0.9" d="M141.747 73.7059H127.122C122.616 73.7059 118.964 70.0654 118.964 65.5746C118.964 61.0838 122.616 57.4433 127.122 57.4433C128.482 57.4433 129.764 57.7748 130.891 58.3612C132.461 53.8231 136.783 50.563 141.869 50.563C148.281 50.563 153.479 55.7437 153.479 62.1344C153.479 62.2654 153.476 62.3959 153.472 62.5258C155.344 63.5281 156.616 65.4978 156.616 67.7638C156.616 71.0455 153.947 73.7059 150.655 73.7059H141.869C141.851 73.7059 141.747 73.7059 141.747 73.7059H141.869H141.747Z" fill="url(#paint4_linear_8_181)"/>
</g>
<defs>
<linearGradient id="paint0_linear_8_181" x1="0" y1="0" x2="0" y2="162" gradientUnits="userSpaceOnUse">
<stop stop-color="#9EBFFF"/>
<stop offset="0.369792" stop-color="#A8D0FF"/>
<stop offset="1" stop-color="#B1E7FF"/>
</linearGradient>
<linearGradient id="paint1_linear_8_181" x1="81" y1="19.5377" x2="81" y2="51.8194" gradientUnits="userSpaceOnUse">
<stop stop-color="white"/>
<stop offset="1" stop-color="white" stop-opacity="0.01"/>
</linearGradient>
<linearGradient id="paint2_linear_8_181" x1="162.608" y1="91.9762" x2="162.608" y2="162" gradientUnits="userSpaceOnUse">
<stop stop-color="#8CC7FE"/>
<stop offset="1" stop-color="#A9D4FF"/>
</linearGradient>
<linearGradient id="paint3_linear_8_181" x1="-32.7857" y1="116.887" x2="-32.7857" y2="202.442" gradientUnits="userSpaceOnUse">
<stop stop-color="#8FC0FD"/>
<stop offset="1" stop-color="#91DDFF"/>
</linearGradient>
<linearGradient id="paint4_linear_8_181" x1="118.964" y1="50.563" x2="118.964" y2="73.7059" gradientUnits="userSpaceOnUse">
<stop stop-color="white"/>
<stop offset="1" stop-color="white" stop-opacity="0.01"/>
</linearGradient>
<clipPath id="clip0_8_181">
<path d="M0 81C0 36.2649 36.2649 0 81 0C125.735 0 162 36.2649 162 81C162 125.735 125.735 162 81 162C36.2649 162 0 125.735 0 81Z" fill="white"/>
</clipPath>
</defs>
</svg>
