<svg width="162" height="162" viewBox="0 0 162 162" fill="none" xmlns="http://www.w3.org/2000/svg">
<g clip-path="url(#clip0_8_239)">
<path d="M0 81C0 36.2649 36.2649 0 81 0C125.735 0 162 36.2649 162 81C162 125.735 125.735 162 81 162C36.2649 162 0 125.735 0 81Z" fill="url(#paint0_linear_8_239)"/>
<path fill-rule="evenodd" clip-rule="evenodd" d="M175.779 106.942C175.779 106.942 152.806 92.5714 135.454 92.5714C112.502 92.5714 97.1555 112.17 78.5891 112.17C56.9506 112.17 54.2278 106.507 42.0938 106.507C24.9442 106.507 2.30957 117.126 -9.62743 113.294C-19.2603 110.201 -30.8571 103.953 -30.8571 103.953V156.41L175.779 159.563V106.942Z" fill="url(#paint1_linear_8_239)"/>
<path fill-rule="evenodd" clip-rule="evenodd" d="M-31.3086 141.989C-31.3086 141.989 -30.261 108.987 -6.51304 103.826C14.2503 100.758 30.2584 124.576 48.8248 124.576C70.4633 124.576 80.6609 110.753 101.67 110.753C116.992 110.753 131.955 122.771 152.821 118.605C199.167 109.352 175.328 107.765 175.328 107.765V160.221L-31.3086 163.374V141.989Z" fill="url(#paint2_linear_8_239)"/>
<ellipse cx="63.6428" cy="38.5714" rx="13.5" ry="13.5" fill="#FFF9C7"/>
</g>
<defs>
<linearGradient id="paint0_linear_8_239" x1="-22.0626" y1="0" x2="-22.0626" y2="206.125" gradientUnits="userSpaceOnUse">
<stop offset="0.0677083" stop-color="#FF8CD1"/>
<stop offset="0.828125" stop-color="#FFE05B"/>
</linearGradient>
<linearGradient id="paint1_linear_8_239" x1="175.779" y1="92.5714" x2="175.779" y2="159.563" gradientUnits="userSpaceOnUse">
<stop stop-color="#FFB022"/>
<stop offset="1" stop-color="#FFD6BE"/>
</linearGradient>
<linearGradient id="paint2_linear_8_239" x1="-31.3086" y1="103.553" x2="-31.3086" y2="163.374" gradientUnits="userSpaceOnUse">
<stop stop-color="#FED54C"/>
<stop offset="1" stop-color="#FEDD3A"/>
</linearGradient>
<clipPath id="clip0_8_239">
<path d="M0 81C0 36.2649 36.2649 0 81 0C125.735 0 162 36.2649 162 81C162 125.735 125.735 162 81 162C36.2649 162 0 125.735 0 81Z" fill="white"/>
</clipPath>
</defs>
</svg>
